# xmcd CD database file
#
# Track frame offsets:
#	150
#	19612
#	41172
#	61227
#	81182
#	104132
#	126867
#	150447
#	170209
#	192225
#	214675
#	241660
#	262290
#	282862
#
# Disc length: 4059 seconds
#
# Revision: 0
# Processed by: cddbd v1.5.2PL0 Copyright (c) Steve Scherf et al.
# Submitted via: CDex 1.51
#
DISCID=c90fd90e
DTITLE=Harvey Scales - Somebody Else's Somebody
DYEAR=1997
DGENRE=Blues
TTITLE0=That Thang That U Got
TTITLE1=Somebody Else's Somebody
TTITLE2=Bad News Travels Fast
TTITLE3=Giving U What U Want
TTITLE4=Front Door, Back Door
TTITLE5=Who You Gonna Believe
TTITLE6=Blues is in the House, The
TTITLE7=That Thang That U Got (Rap)
TTITLE8=I'd Do It With You
TTITLE9=I Can Take a Hint
TTITLE10=Party Till U Sweat
TTITLE11=Slow Roll Me
TTITLE12=I'm In Love
TTITLE13=Too Much Is Not Enough
EXTD=YEAR: 1997
EXTT0=
EXTT1=
EXTT2=
EXTT3=
EXTT4=
EXTT5=
EXTT6=
EXTT7=
EXTT8=
EXTT9=
EXTT10=
EXTT11=
EXTT12=
EXTT13=
PLAYORDER=
